<svg width="587" height="396" viewBox="0 0 587 396" fill="none" xmlns="http://www.w3.org/2000/svg">
<g clip-path="url(#clip0_113_2)">
<path d="M0 0H81.0342V395.066H0V0Z" fill="black"/>
<path d="M397.391 1.55664V394.475H314.148V1.55664H397.391Z" fill="black"/>
<path d="M219.359 256.695C199.069 235.932 181.611 218.063 161.446 197.393C181.393 181.922 201.87 166.077 219.359 152.504V256.695Z" fill="black"/>
<path d="M207.969 396C237.003 369.82 263.33 346.037 288.381 323.406V396H207.969Z" fill="black"/>
<path d="M289.875 77.6371C263.797 52.2353 239.057 28.1098 211.952 1.71191H289.875V77.6371Z" fill="black"/>
<path d="M586.844 107.927C586.844 49.2784 539.419 1.74342 480.822 1.55664V107.927H586.844Z" fill="black"/>
<path d="M480.666 396C539.294 396 586.813 348.558 587 289.941H480.666V396Z" fill="black"/>
</g>
<defs>
<clipPath id="clip0_113_2">
<rect width="587" height="396" fill="white"/>
</clipPath>
</defs>
</svg>
