<svg width="44" height="31" viewBox="0 0 44 31" fill="none" xmlns="http://www.w3.org/2000/svg">
<g clip-path="url(#clip0_114_34)">
<path d="M0 0H6.07411V30.9269H0V0Z" fill="black"/>
<path d="M29.7874 0.12207V30.8808H23.5477V0.12207H29.7874Z" fill="black"/>
<path d="M16.4425 20.0948C14.9217 18.4694 13.6131 17.0706 12.1016 15.4525C13.5968 14.2414 15.1316 13.001 16.4425 11.9385V20.0948Z" fill="black"/>
<path d="M15.5888 30.9998C17.7652 28.9503 19.7385 27.0885 21.6163 25.3169V30.9998H15.5888Z" fill="black"/>
<path d="M21.7282 6.07743C19.7735 4.0889 17.9191 2.20029 15.8874 0.133789H21.7282V6.07743Z" fill="black"/>
<path d="M43.9883 8.44901C43.9883 3.85786 40.4334 0.136692 36.0411 0.12207V8.44901H43.9883Z" fill="black"/>
<path d="M36.0295 30.9998C40.4241 30.9998 43.986 27.286 44 22.6973H36.0295V30.9998Z" fill="black"/>
</g>
<defs>
<clipPath id="clip0_114_34">
<rect width="44" height="31" fill="white"/>
</clipPath>
</defs>
</svg>
